<svg version="1.1" xmlns="http://www.w3.org/2000/svg" xmlns:xlink="http://www.w3.org/1999/xlink" width="660" height="572"><defs/><g><text fill="#eeeeee" stroke="none" font-family="Arial" font-size="24px" font-style="normal" font-weight="normal" text-decoration="none" x="0" y="0">UNREGISTERED</text><text fill="#eeeeee" stroke="none" font-family="Arial" font-size="24px" font-style="normal" font-weight="normal" text-decoration="none" x="0" y="30">UNREGISTERED</text><text fill="#eeeeee" stroke="none" font-family="Arial" font-size="24px" font-style="normal" font-weight="normal" text-decoration="none" x="0" y="60">UNREGISTERED</text><text fill="#eeeeee" stroke="none" font-family="Arial" font-size="24px" font-style="normal" font-weight="normal" text-decoration="none" x="0" y="90">UNREGISTERED</text><text fill="#eeeeee" stroke="none" font-family="Arial" font-size="24px" font-style="normal" font-weight="normal" text-decoration="none" x="0" y="120">UNREGISTERED</text><text fill="#eeeeee" stroke="none" font-family="Arial" font-size="24px" font-style="normal" font-weight="normal" text-decoration="none" x="0" y="150">UNREGISTERED</text><text fill="#eeeeee" stroke="none" font-family="Arial" font-size="24px" font-style="normal" font-weight="normal" text-decoration="none" x="0" y="180">UNREGISTERED</text><text fill="#eeeeee" stroke="none" font-family="Arial" font-size="24px" font-style="normal" font-weight="normal" text-decoration="none" x="0" y="210">UNREGISTERED</text><text fill="#eeeeee" stroke="none" font-family="Arial" font-size="24px" font-style="normal" font-weight="normal" text-decoration="none" x="0" y="240">UNREGISTERED</text><text fill="#eeeeee" stroke="none" font-family="Arial" font-size="24px" font-style="normal" font-weight="normal" text-decoration="none" x="0" y="270">UNREGISTERED</text><text fill="#eeeeee" stroke="none" font-family="Arial" font-size="24px" font-style="normal" font-weight="normal" text-decoration="none" x="0" y="300">UNREGISTERED</text><text fill="#eeeeee" stroke="none" font-family="Arial" font-size="24px" font-style="normal" font-weight="normal" text-decoration="none" x="0" y="330">UNREGISTERED</text><text fill="#eeeeee" stroke="none" font-family="Arial" font-size="24px" font-style="normal" font-weight="normal" text-decoration="none" x="0" y="360">UNREGISTERED</text><text fill="#eeeeee" stroke="none" font-family="Arial" font-size="24px" font-style="normal" font-weight="normal" text-decoration="none" x="0" y="390">UNREGISTERED</text><text fill="#eeeeee" stroke="none" font-family="Arial" font-size="24px" font-style="normal" font-weight="normal" text-decoration="none" x="0" y="420">UNREGISTERED</text><text fill="#eeeeee" stroke="none" font-family="Arial" font-size="24px" font-style="normal" font-weight="normal" text-decoration="none" x="0" y="450">UNREGISTERED</text><text fill="#eeeeee" stroke="none" font-family="Arial" font-size="24px" font-style="normal" font-weight="normal" text-decoration="none" x="0" y="480">UNREGISTERED</text><text fill="#eeeeee" stroke="none" font-family="Arial" font-size="24px" font-style="normal" font-weight="normal" text-decoration="none" x="0" y="510">UNREGISTERED</text><text fill="#eeeeee" stroke="none" font-family="Arial" font-size="24px" font-style="normal" font-weight="normal" text-decoration="none" x="0" y="540">UNREGISTERED</text><text fill="#eeeeee" stroke="none" font-family="Arial" font-size="24px" font-style="normal" font-weight="normal" text-decoration="none" x="0" y="570">UNREGISTERED</text><text fill="#eeeeee" stroke="none" font-family="Arial" font-size="24px" font-style="normal" font-weight="normal" text-decoration="none" x="200" y="0">UNREGISTERED</text><text fill="#eeeeee" stroke="none" font-family="Arial" font-size="24px" font-style="normal" font-weight="normal" text-decoration="none" x="200" y="30">UNREGISTERED</text><text fill="#eeeeee" stroke="none" font-family="Arial" font-size="24px" font-style="normal" font-weight="normal" text-decoration="none" x="200" y="60">UNREGISTERED</text><text fill="#eeeeee" stroke="none" font-family="Arial" font-size="24px" font-style="normal" font-weight="normal" text-decoration="none" x="200" y="90">UNREGISTERED</text><text fill="#eeeeee" stroke="none" font-family="Arial" font-size="24px" font-style="normal" font-weight="normal" text-decoration="none" x="200" y="120">UNREGISTERED</text><text fill="#eeeeee" stroke="none" font-family="Arial" font-size="24px" font-style="normal" font-weight="normal" text-decoration="none" x="200" y="150">UNREGISTERED</text><text fill="#eeeeee" stroke="none" font-family="Arial" font-size="24px" font-style="normal" font-weight="normal" text-decoration="none" x="200" y="180">UNREGISTERED</text><text fill="#eeeeee" stroke="none" font-family="Arial" font-size="24px" font-style="normal" font-weight="normal" text-decoration="none" x="200" y="210">UNREGISTERED</text><text fill="#eeeeee" stroke="none" font-family="Arial" font-size="24px" font-style="normal" font-weight="normal" text-decoration="none" x="200" y="240">UNREGISTERED</text><text fill="#eeeeee" stroke="none" font-family="Arial" font-size="24px" font-style="normal" font-weight="normal" text-decoration="none" x="200" y="270">UNREGISTERED</text><text fill="#eeeeee" stroke="none" font-family="Arial" font-size="24px" font-style="normal" font-weight="normal" text-decoration="none" x="200" y="300">UNREGISTERED</text><text fill="#eeeeee" stroke="none" font-family="Arial" font-size="24px" font-style="normal" font-weight="normal" text-decoration="none" x="200" y="330">UNREGISTERED</text><text fill="#eeeeee" stroke="none" font-family="Arial" font-size="24px" font-style="normal" font-weight="normal" text-decoration="none" x="200" y="360">UNREGISTERED</text><text fill="#eeeeee" stroke="none" font-family="Arial" font-size="24px" font-style="normal" font-weight="normal" text-decoration="none" x="200" y="390">UNREGISTERED</text><text fill="#eeeeee" stroke="none" font-family="Arial" font-size="24px" font-style="normal" font-weight="normal" text-decoration="none" x="200" y="420">UNREGISTERED</text><text fill="#eeeeee" stroke="none" font-family="Arial" font-size="24px" font-style="normal" font-weight="normal" text-decoration="none" x="200" y="450">UNREGISTERED</text><text fill="#eeeeee" stroke="none" font-family="Arial" font-size="24px" font-style="normal" font-weight="normal" text-decoration="none" x="200" y="480">UNREGISTERED</text><text fill="#eeeeee" stroke="none" font-family="Arial" font-size="24px" font-style="normal" font-weight="normal" text-decoration="none" x="200" y="510">UNREGISTERED</text><text fill="#eeeeee" stroke="none" font-family="Arial" font-size="24px" font-style="normal" font-weight="normal" text-decoration="none" x="200" y="540">UNREGISTERED</text><text fill="#eeeeee" stroke="none" font-family="Arial" font-size="24px" font-style="normal" font-weight="normal" text-decoration="none" x="200" y="570">UNREGISTERED</text><text fill="#eeeeee" stroke="none" font-family="Arial" font-size="24px" font-style="normal" font-weight="normal" text-decoration="none" x="400" y="0">UNREGISTERED</text><text fill="#eeeeee" stroke="none" font-family="Arial" font-size="24px" font-style="normal" font-weight="normal" text-decoration="none" x="400" y="30">UNREGISTERED</text><text fill="#eeeeee" stroke="none" font-family="Arial" font-size="24px" font-style="normal" font-weight="normal" text-decoration="none" x="400" y="60">UNREGISTERED</text><text fill="#eeeeee" stroke="none" font-family="Arial" font-size="24px" font-style="normal" font-weight="normal" text-decoration="none" x="400" y="90">UNREGISTERED</text><text fill="#eeeeee" stroke="none" font-family="Arial" font-size="24px" font-style="normal" font-weight="normal" text-decoration="none" x="400" y="120">UNREGISTERED</text><text fill="#eeeeee" stroke="none" font-family="Arial" font-size="24px" font-style="normal" font-weight="normal" text-decoration="none" x="400" y="150">UNREGISTERED</text><text fill="#eeeeee" stroke="none" font-family="Arial" font-size="24px" font-style="normal" font-weight="normal" text-decoration="none" x="400" y="180">UNREGISTERED</text><text fill="#eeeeee" stroke="none" font-family="Arial" font-size="24px" font-style="normal" font-weight="normal" text-decoration="none" x="400" y="210">UNREGISTERED</text><text fill="#eeeeee" stroke="none" font-family="Arial" font-size="24px" font-style="normal" font-weight="normal" text-decoration="none" x="400" y="240">UNREGISTERED</text><text fill="#eeeeee" stroke="none" font-family="Arial" font-size="24px" font-style="normal" font-weight="normal" text-decoration="none" x="400" y="270">UNREGISTERED</text><text fill="#eeeeee" stroke="none" font-family="Arial" font-size="24px" font-style="normal" font-weight="normal" text-decoration="none" x="400" y="300">UNREGISTERED</text><text fill="#eeeeee" stroke="none" font-family="Arial" font-size="24px" font-style="normal" font-weight="normal" text-decoration="none" x="400" y="330">UNREGISTERED</text><text fill="#eeeeee" stroke="none" font-family="Arial" font-size="24px" font-style="normal" font-weight="normal" text-decoration="none" x="400" y="360">UNREGISTERED</text><text fill="#eeeeee" stroke="none" font-family="Arial" font-size="24px" font-style="normal" font-weight="normal" text-decoration="none" x="400" y="390">UNREGISTERED</text><text fill="#eeeeee" stroke="none" font-family="Arial" font-size="24px" font-style="normal" font-weight="normal" text-decoration="none" x="400" y="420">UNREGISTERED</text><text fill="#eeeeee" stroke="none" font-family="Arial" font-size="24px" font-style="normal" font-weight="normal" text-decoration="none" x="400" y="450">UNREGISTERED</text><text fill="#eeeeee" stroke="none" font-family="Arial" font-size="24px" font-style="normal" font-weight="normal" text-decoration="none" x="400" y="480">UNREGISTERED</text><text fill="#eeeeee" stroke="none" font-family="Arial" font-size="24px" font-style="normal" font-weight="normal" text-decoration="none" x="400" y="510">UNREGISTERED</text><text fill="#eeeeee" stroke="none" font-family="Arial" font-size="24px" font-style="normal" font-weight="normal" text-decoration="none" x="400" y="540">UNREGISTERED</text><text fill="#eeeeee" stroke="none" font-family="Arial" font-size="24px" font-style="normal" font-weight="normal" text-decoration="none" x="400" y="570">UNREGISTERED</text><text fill="#eeeeee" stroke="none" font-family="Arial" font-size="24px" font-style="normal" font-weight="normal" text-decoration="none" x="600" y="0">UNREGISTERED</text><text fill="#eeeeee" stroke="none" font-family="Arial" font-size="24px" font-style="normal" font-weight="normal" text-decoration="none" x="600" y="30">UNREGISTERED</text><text fill="#eeeeee" stroke="none" font-family="Arial" font-size="24px" font-style="normal" font-weight="normal" text-decoration="none" x="600" y="60">UNREGISTERED</text><text fill="#eeeeee" stroke="none" font-family="Arial" font-size="24px" font-style="normal" font-weight="normal" text-decoration="none" x="600" y="90">UNREGISTERED</text><text fill="#eeeeee" stroke="none" font-family="Arial" font-size="24px" font-style="normal" font-weight="normal" text-decoration="none" x="600" y="120">UNREGISTERED</text><text fill="#eeeeee" stroke="none" font-family="Arial" font-size="24px" font-style="normal" font-weight="normal" text-decoration="none" x="600" y="150">UNREGISTERED</text><text fill="#eeeeee" stroke="none" font-family="Arial" font-size="24px" font-style="normal" font-weight="normal" text-decoration="none" x="600" y="180">UNREGISTERED</text><text fill="#eeeeee" stroke="none" font-family="Arial" font-size="24px" font-style="normal" font-weight="normal" text-decoration="none" x="600" y="210">UNREGISTERED</text><text fill="#eeeeee" stroke="none" font-family="Arial" font-size="24px" font-style="normal" font-weight="normal" text-decoration="none" x="600" y="240">UNREGISTERED</text><text fill="#eeeeee" stroke="none" font-family="Arial" font-size="24px" font-style="normal" font-weight="normal" text-decoration="none" x="600" y="270">UNREGISTERED</text><text fill="#eeeeee" stroke="none" font-family="Arial" font-size="24px" font-style="normal" font-weight="normal" text-decoration="none" x="600" y="300">UNREGISTERED</text><text fill="#eeeeee" stroke="none" font-family="Arial" font-size="24px" font-style="normal" font-weight="normal" text-decoration="none" x="600" y="330">UNREGISTERED</text><text fill="#eeeeee" stroke="none" font-family="Arial" font-size="24px" font-style="normal" font-weight="normal" text-decoration="none" x="600" y="360">UNREGISTERED</text><text fill="#eeeeee" stroke="none" font-family="Arial" font-size="24px" font-style="normal" font-weight="normal" text-decoration="none" x="600" y="390">UNREGISTERED</text><text fill="#eeeeee" stroke="none" font-family="Arial" font-size="24px" font-style="normal" font-weight="normal" text-decoration="none" x="600" y="420">UNREGISTERED</text><text fill="#eeeeee" stroke="none" font-family="Arial" font-size="24px" font-style="normal" font-weight="normal" text-decoration="none" x="600" y="450">UNREGISTERED</text><text fill="#eeeeee" stroke="none" font-family="Arial" font-size="24px" font-style="normal" font-weight="normal" text-decoration="none" x="600" y="480">UNREGISTERED</text><text fill="#eeeeee" stroke="none" font-family="Arial" font-size="24px" font-style="normal" font-weight="normal" text-decoration="none" x="600" y="510">UNREGISTERED</text><text fill="#eeeeee" stroke="none" font-family="Arial" font-size="24px" font-style="normal" font-weight="normal" text-decoration="none" x="600" y="540">UNREGISTERED</text><text fill="#eeeeee" stroke="none" font-family="Arial" font-size="24px" font-style="normal" font-weight="normal" text-decoration="none" x="600" y="570">UNREGISTERED</text><g transform="translate(-54,-14) scale(1,1)"><rect fill="#C0C0C0" stroke="none" x="71" y="167" width="92.80000000000001" height="15" opacity="0.2"/></g><g transform="translate(-54,-14) scale(1,1)"><rect fill="#C0C0C0" stroke="none" x="71" y="181" width="232" height="242" opacity="0.2"/></g><g transform="translate(-54,-14) scale(1,1)"><rect fill="#a3ffd1" stroke="none" x="64" y="175" width="232" height="241"/></g><g transform="translate(-54,-14) scale(1,1)"><path fill="none" stroke="#000000" d="M 64 175 L 296 175 L 296 416 L 64 416 L 64 175 Z Z" stroke-miterlimit="10"/></g><g transform="translate(-54,-14) scale(1,1)"><rect fill="#a3ffd1" stroke="none" x="64" y="160" width="92.80000000000001" height="15"/></g><g transform="translate(-54,-14) scale(1,1)"><path fill="none" stroke="#000000" d="M 64 160 L 156.8 160 L 156.8 175 L 64 175 L 64 160 Z Z" stroke-miterlimit="10"/></g><g transform="translate(-54,-14) scale(1,1)"><rect fill="#a3ffd1" stroke="none" x="64" y="174" width="232" height="242"/></g><g transform="translate(-54,-14) scale(1,1)"><path fill="none" stroke="#000000" d="M 64 174 L 296 174 L 296 416 L 64 416 L 64 174 Z Z" stroke-miterlimit="10"/></g><g transform="translate(-54,-14) scale(1,1)"><g><path fill="none" stroke="none"/><text fill="#000000" stroke="none" font-family="Arial" font-size="13px" font-style="normal" font-weight="normal" text-decoration="none" x="139.530517578125" y="192.5">«persistence»</text></g></g><g transform="translate(-54,-14) scale(1,1)"><g><path fill="none" stroke="none"/><text fill="#000000" stroke="none" font-family="Arial" font-size="13px" font-style="normal" font-weight="bold" text-decoration="none" x="162.29638671875" y="207.5">model</text></g></g><g transform="translate(-54,-14) scale(1,1)"><rect fill="#C0C0C0" stroke="none" x="335" y="167" width="150.39999999999998" height="15" opacity="0.2"/></g><g transform="translate(-54,-14) scale(1,1)"><rect fill="#C0C0C0" stroke="none" x="335" y="181" width="376" height="242" opacity="0.2"/></g><g transform="translate(-54,-14) scale(1,1)"><rect fill="#ffff91" stroke="none" x="328" y="175" width="376" height="241"/></g><g transform="translate(-54,-14) scale(1,1)"><path fill="none" stroke="#000000" d="M 328 175 L 704 175 L 704 416 L 328 416 L 328 175 Z Z" stroke-miterlimit="10"/></g><g transform="translate(-54,-14) scale(1,1)"><rect fill="#ffff91" stroke="none" x="328" y="160" width="150.39999999999998" height="15"/></g><g transform="translate(-54,-14) scale(1,1)"><path fill="none" stroke="#000000" d="M 328 160 L 478.4 160 L 478.4 175 L 328 175 L 328 160 Z Z" stroke-miterlimit="10"/></g><g transform="translate(-54,-14) scale(1,1)"><rect fill="#ffff91" stroke="none" x="328" y="174" width="376" height="242"/></g><g transform="translate(-54,-14) scale(1,1)"><path fill="none" stroke="#000000" d="M 328 174 L 704 174 L 704 416 L 328 416 L 328 174 Z Z" stroke-miterlimit="10"/></g><g transform="translate(-54,-14) scale(1,1)"><g><path fill="none" stroke="none"/><text fill="#000000" stroke="none" font-family="Arial" font-size="13px" font-style="normal" font-weight="bold" text-decoration="none" x="505.155029296875" y="194.5">dao</text></g></g><g transform="translate(-54,-14) scale(1,1)"><rect fill="#C0C0C0" stroke="none" x="79" y="455" width="83.19999999999999" height="15" opacity="0.2"/></g><g transform="translate(-54,-14) scale(1,1)"><rect fill="#C0C0C0" stroke="none" x="79" y="469" width="208" height="114" opacity="0.2"/></g><g transform="translate(-54,-14) scale(1,1)"><rect fill="#ffadd6" stroke="none" x="72" y="463" width="208" height="113"/></g><g transform="translate(-54,-14) scale(1,1)"><path fill="none" stroke="#000000" d="M 72 463 L 280 463 L 280 576 L 72 576 L 72 463 Z Z" stroke-miterlimit="10"/></g><g transform="translate(-54,-14) scale(1,1)"><rect fill="#ffadd6" stroke="none" x="72" y="448" width="83.19999999999999" height="15"/></g><g transform="translate(-54,-14) scale(1,1)"><path fill="none" stroke="#000000" d="M 72 448 L 155.2 448 L 155.2 463 L 72 463 L 72 448 Z Z" stroke-miterlimit="10"/></g><g transform="translate(-54,-14) scale(1,1)"><rect fill="#ffadd6" stroke="none" x="72" y="462" width="208" height="114"/></g><g transform="translate(-54,-14) scale(1,1)"><path fill="none" stroke="#000000" d="M 72 462 L 280 462 L 280 576 L 72 576 L 72 462 Z Z" stroke-miterlimit="10"/></g><g transform="translate(-54,-14) scale(1,1)"><g><path fill="none" stroke="none"/><text fill="#000000" stroke="none" font-family="Arial" font-size="13px" font-style="normal" font-weight="normal" text-decoration="none" x="157.92822265625" y="480.5">«http»</text></g></g><g transform="translate(-54,-14) scale(1,1)"><g><path fill="none" stroke="none"/><text fill="#000000" stroke="none" font-family="Arial" font-size="13px" font-style="normal" font-weight="bold" text-decoration="none" x="167.325927734375" y="495.5">api</text></g></g><g transform="translate(-54,-14) scale(1,1)"><rect fill="#C0C0C0" stroke="none" x="343" y="495" width="140.8" height="15" opacity="0.2"/></g><g transform="translate(-54,-14) scale(1,1)"><rect fill="#C0C0C0" stroke="none" x="343" y="509" width="352" height="74" opacity="0.2"/></g><g transform="translate(-54,-14) scale(1,1)"><rect fill="#e2e2e2" stroke="none" x="336" y="503" width="352" height="73"/></g><g transform="translate(-54,-14) scale(1,1)"><path fill="none" stroke="#000000" d="M 336 503 L 688 503 L 688 576 L 336 576 L 336 503 Z Z" stroke-miterlimit="10"/></g><g transform="translate(-54,-14) scale(1,1)"><rect fill="#e2e2e2" stroke="none" x="336" y="488" width="140.8" height="15"/></g><g transform="translate(-54,-14) scale(1,1)"><path fill="none" stroke="#000000" d="M 336 488 L 476.8 488 L 476.8 503 L 336 503 L 336 488 Z Z" stroke-miterlimit="10"/></g><g transform="translate(-54,-14) scale(1,1)"><rect fill="#e2e2e2" stroke="none" x="336" y="502" width="352" height="74"/></g><g transform="translate(-54,-14) scale(1,1)"><path fill="none" stroke="#000000" d="M 336 502 L 688 502 L 688 576 L 336 576 L 336 502 Z Z" stroke-miterlimit="10"/></g><g transform="translate(-54,-14) scale(1,1)"><g><path fill="none" stroke="none"/><text fill="#000000" stroke="none" font-family="Arial" font-size="13px" font-style="normal" font-weight="bold" text-decoration="none" x="501.523193359375" y="522.5">test</text></g></g><g transform="translate(-54,-14) scale(1,1)"><rect fill="#C0C0C0" stroke="none" x="71" y="31" width="76.80000000000001" height="15" opacity="0.2"/></g><g transform="translate(-54,-14) scale(1,1)"><rect fill="#C0C0C0" stroke="none" x="71" y="45" width="192" height="90" opacity="0.2"/></g><g transform="translate(-54,-14) scale(1,1)"><rect fill="#ffffff" stroke="none" x="64" y="39" width="192" height="89"/></g><g transform="translate(-54,-14) scale(1,1)"><path fill="none" stroke="#000000" d="M 64 39 L 256 39 L 256 128 L 64 128 L 64 39 Z Z" stroke-miterlimit="10"/></g><g transform="translate(-54,-14) scale(1,1)"><rect fill="#ffffff" stroke="none" x="64" y="24" width="76.80000000000001" height="15"/></g><g transform="translate(-54,-14) scale(1,1)"><path fill="none" stroke="#000000" d="M 64 24 L 140.8 24 L 140.8 39 L 64 39 L 64 24 Z Z" stroke-miterlimit="10"/></g><g transform="translate(-54,-14) scale(1,1)"><rect fill="#ffffff" stroke="none" x="64" y="38" width="192" height="90"/></g><g transform="translate(-54,-14) scale(1,1)"><path fill="none" stroke="#000000" d="M 64 38 L 256 38 L 256 128 L 64 128 L 64 38 Z Z" stroke-miterlimit="10"/></g><g transform="translate(-54,-14) scale(1,1)"><g><path fill="none" stroke="none"/><text fill="#000000" stroke="none" font-family="Arial" font-size="13px" font-style="normal" font-weight="bold" text-decoration="none" x="142.655029296875" y="58.5">config</text></g></g><g transform="translate(-54,-14) scale(1,1)"><rect fill="#C0C0C0" stroke="none" x="327" y="39" width="124.80000000000001" height="15" opacity="0.2"/></g><g transform="translate(-54,-14) scale(1,1)"><rect fill="#C0C0C0" stroke="none" x="327" y="53" width="312" height="90" opacity="0.2"/></g><g transform="translate(-54,-14) scale(1,1)"><rect fill="#ffffff" stroke="none" x="320" y="47" width="312" height="89"/></g><g transform="translate(-54,-14) scale(1,1)"><path fill="none" stroke="#000000" d="M 320 47 L 632 47 L 632 136 L 320 136 L 320 47 Z Z" stroke-miterlimit="10"/></g><g transform="translate(-54,-14) scale(1,1)"><rect fill="#ffffff" stroke="none" x="320" y="32" width="124.80000000000001" height="15"/></g><g transform="translate(-54,-14) scale(1,1)"><path fill="none" stroke="#000000" d="M 320 32 L 444.8 32 L 444.8 47 L 320 47 L 320 32 Z Z" stroke-miterlimit="10"/></g><g transform="translate(-54,-14) scale(1,1)"><rect fill="#ffffff" stroke="none" x="320" y="46" width="312" height="90"/></g><g transform="translate(-54,-14) scale(1,1)"><path fill="none" stroke="#000000" d="M 320 46 L 632 46 L 632 136 L 320 136 L 320 46 Z Z" stroke-miterlimit="10"/></g><g transform="translate(-54,-14) scale(1,1)"><g><path fill="none" stroke="none"/><text fill="#000000" stroke="none" font-family="Arial" font-size="13px" font-style="normal" font-weight="bold" text-decoration="none" x="462.2763671875" y="66.5">error</text></g></g><g transform="translate(-54,-14) scale(1,1)"><rect fill="#C0C0C0" stroke="none" x="343" y="79" width="128" height="37" opacity="0.2"/></g><g transform="translate(-54,-14) scale(1,1)"><rect fill="#ffffff" stroke="none" x="336" y="72" width="128" height="37"/></g><g transform="translate(-54,-14) scale(1,1)"><path fill="none" stroke="#000000" d="M 336 72 L 464 72 L 464 109 L 336 109 L 336 72 Z Z" stroke-miterlimit="10"/></g><g transform="translate(-54,-14) scale(1,1)"><g><path fill="none" stroke="none"/><text fill="#000000" stroke="none" font-family="Arial" font-size="13px" font-style="normal" font-weight="normal" text-decoration="none" x="376.87548828125" y="89.5">«reject»</text></g></g><g transform="translate(-54,-14) scale(1,1)"><g><path fill="none" stroke="none"/><text fill="#000000" stroke="none" font-family="Arial" font-size="13px" font-style="normal" font-weight="bold" text-decoration="none" x="354.128662109375" y="104.5">ErrorWithStatus</text></g></g><g transform="translate(-54,-14) scale(1,1)"><path fill="none" stroke="#000000" d="M 503 107 L 465 101" stroke-miterlimit="10"/></g><g transform="translate(-54,-14) scale(1,1)"><path fill="#FFFFFF" stroke="none" d="M 486.3896821507012 95.85398236575361 L 465 101 L 483.76357326146683 112.48600533090449"/></g><g transform="translate(-54,-14) scale(1,1)"><path fill="none" stroke="#000000" d="M 486.3896821507012 95.85398236575361 L 465 101 L 483.76357326146683 112.48600533090449 L 486.3896821507012 95.85398236575361" stroke-miterlimit="10"/></g><g transform="translate(-54,-14) scale(1,1)"><rect fill="#C0C0C0" stroke="none" x="511" y="111" width="102.15185546875" height="24" opacity="0.2"/></g><g transform="translate(-54,-14) scale(1,1)"><rect fill="#ffffff" stroke="none" x="504" y="104" width="102.15185546875" height="24"/></g><g transform="translate(-54,-14) scale(1,1)"><path fill="none" stroke="#000000" d="M 504 104 L 606.15185546875 104 L 606.15185546875 128 L 504 128 L 504 104 Z Z" stroke-miterlimit="10"/></g><g transform="translate(-54,-14) scale(1,1)"><g><path fill="none" stroke="none"/><text fill="#000000" stroke="none" font-family="Arial" font-size="13px" font-style="normal" font-weight="bold" text-decoration="none" x="512.08642578125" y="123.5">NotFoundError</text></g></g><g transform="translate(-54,-14) scale(1,1)"><path fill="#ffffff" stroke="none" d="M 88 80 L 146 80 L 156 90 L 156 118 L 88 118 L 88 80"/></g><g transform="translate(-54,-14) scale(1,1)"><path fill="none" stroke="#000000" d="M 88 80 L 146 80 L 156 90 L 156 118 L 88 118 L 88 80 L 88 80" stroke-miterlimit="10"/></g><g transform="translate(-54,-14) scale(1,1)"><path fill="none" stroke="#000000" d="M 146 80 L 146 90 L 156 90 L 146 80" stroke-miterlimit="10"/></g><g transform="translate(-54,-14) scale(1,1)"><g><path fill="none" stroke="none"/><text fill="#000000" stroke="none" font-family="Arial" font-size="13px" font-style="normal" font-weight="normal" text-decoration="none" x="93" y="98">config DB</text></g></g><g transform="translate(-54,-14) scale(1,1)"><rect fill="#C0C0C0" stroke="none" x="95" y="303" width="67.19999999999999" height="15" opacity="0.2"/></g><g transform="translate(-54,-14) scale(1,1)"><rect fill="#C0C0C0" stroke="none" x="95" y="317" width="168" height="98" opacity="0.2"/></g><g transform="translate(-54,-14) scale(1,1)"><rect fill="#ffd6ad" stroke="none" x="88" y="311" width="168" height="97"/></g><g transform="translate(-54,-14) scale(1,1)"><path fill="none" stroke="#000000" d="M 88 311 L 256 311 L 256 408 L 88 408 L 88 311 Z Z" stroke-miterlimit="10"/></g><g transform="translate(-54,-14) scale(1,1)"><rect fill="#ffd6ad" stroke="none" x="88" y="296" width="67.19999999999999" height="15"/></g><g transform="translate(-54,-14) scale(1,1)"><path fill="none" stroke="#000000" d="M 88 296 L 155.2 296 L 155.2 311 L 88 311 L 88 296 Z Z" stroke-miterlimit="10"/></g><g transform="translate(-54,-14) scale(1,1)"><rect fill="#ffd6ad" stroke="none" x="88" y="310" width="168" height="98"/></g><g transform="translate(-54,-14) scale(1,1)"><path fill="none" stroke="#000000" d="M 88 310 L 256 310 L 256 408 L 88 408 L 88 310 Z Z" stroke-miterlimit="10"/></g><g transform="translate(-54,-14) scale(1,1)"><g><path fill="none" stroke="none"/><text fill="#000000" stroke="none" font-family="Arial" font-size="13px" font-style="normal" font-weight="bold" text-decoration="none" x="144.536865234375" y="330.5">sequelize</text></g></g><g transform="translate(-54,-14) scale(1,1)"><rect fill="#C0C0C0" stroke="none" x="103" y="351" width="61.0126953125" height="44" opacity="0.2"/></g><g transform="translate(-54,-14) scale(1,1)"><rect fill="#ffffff" stroke="none" x="96" y="344" width="61.0126953125" height="44"/></g><g transform="translate(-54,-14) scale(1,1)"><path fill="none" stroke="#000000" d="M 96 344 L 157.0126953125 344 L 157.0126953125 388 L 96 388 L 96 344 Z Z" stroke-miterlimit="10"/></g><g transform="translate(-54,-14) scale(1,1)"><path fill="none" stroke="#000000" d="M 96 369 L 157.0126953125 369" stroke-miterlimit="10"/></g><g transform="translate(-54,-14) scale(1,1)"><path fill="none" stroke="#000000" d="M 96 379 L 157.0126953125 379" stroke-miterlimit="10"/></g><g transform="translate(-54,-14) scale(1,1)"><g><path fill="none" stroke="none"/><text fill="#000000" stroke="none" font-family="Arial" font-size="13px" font-style="normal" font-weight="bold" text-decoration="none" x="102.302734375" y="363.5">xxModel</text></g></g><g transform="translate(-54,-14) scale(1,1)"><rect fill="#C0C0C0" stroke="none" x="191" y="351" width="61.0126953125" height="44" opacity="0.2"/></g><g transform="translate(-54,-14) scale(1,1)"><rect fill="#ffffff" stroke="none" x="184" y="344" width="61.0126953125" height="44"/></g><g transform="translate(-54,-14) scale(1,1)"><path fill="none" stroke="#000000" d="M 184 344 L 245.0126953125 344 L 245.0126953125 388 L 184 388 L 184 344 Z Z" stroke-miterlimit="10"/></g><g transform="translate(-54,-14) scale(1,1)"><path fill="none" stroke="#000000" d="M 184 369 L 245.0126953125 369" stroke-miterlimit="10"/></g><g transform="translate(-54,-14) scale(1,1)"><path fill="none" stroke="#000000" d="M 184 379 L 245.0126953125 379" stroke-miterlimit="10"/></g><g transform="translate(-54,-14) scale(1,1)"><g><path fill="none" stroke="none"/><text fill="#000000" stroke="none" font-family="Arial" font-size="13px" font-style="normal" font-weight="bold" text-decoration="none" x="190.302734375" y="363.5">yyModel</text></g></g><g transform="translate(-54,-14) scale(1,1)"><path fill="none" stroke="#000000" d="M 124 343 L 118 262" stroke-miterlimit="10" stroke-dasharray="3"/></g><g transform="translate(-54,-14) scale(1,1)"><path fill="#FFFFFF" stroke="none" d="M 127.89750048192897 281.6478875253859 L 118 262 L 111.10543520237815 282.89174421276005"/></g><g transform="translate(-54,-14) scale(1,1)"><path fill="none" stroke="#000000" d="M 127.89750048192897 281.6478875253859 L 118 262 L 111.10543520237815 282.89174421276005 L 127.89750048192897 281.6478875253859" stroke-miterlimit="10"/></g><g transform="translate(-54,-14) scale(1,1)"><path fill="none" stroke="#000000" d="M 215 343 L 219 262" stroke-miterlimit="10" stroke-dasharray="3"/></g><g transform="translate(-54,-14) scale(1,1)"><path fill="#FFFFFF" stroke="none" d="M 226.40628935385251 282.7158605422756 L 219 262 L 209.58871195798096 281.8853628930967"/></g><g transform="translate(-54,-14) scale(1,1)"><path fill="none" stroke="#000000" d="M 226.40628935385251 282.7158605422756 L 219 262 L 209.58871195798096 281.8853628930967 L 226.40628935385251 282.7158605422756" stroke-miterlimit="10"/></g><g transform="translate(-54,-14) scale(1,1)"><rect fill="#C0C0C0" stroke="none" x="359" y="199" width="112" height="15" opacity="0.2"/></g><g transform="translate(-54,-14) scale(1,1)"><rect fill="#C0C0C0" stroke="none" x="359" y="213" width="280" height="82" opacity="0.2"/></g><g transform="translate(-54,-14) scale(1,1)"><rect fill="#d8ffd8" stroke="none" x="352" y="207" width="280" height="81"/></g><g transform="translate(-54,-14) scale(1,1)"><path fill="none" stroke="#000000" d="M 352 207 L 632 207 L 632 288 L 352 288 L 352 207 Z Z" stroke-miterlimit="10"/></g><g transform="translate(-54,-14) scale(1,1)"><rect fill="#d8ffd8" stroke="none" x="352" y="192" width="112" height="15"/></g><g transform="translate(-54,-14) scale(1,1)"><path fill="none" stroke="#000000" d="M 352 192 L 464 192 L 464 207 L 352 207 L 352 192 Z Z" stroke-miterlimit="10"/></g><g transform="translate(-54,-14) scale(1,1)"><rect fill="#d8ffd8" stroke="none" x="352" y="206" width="280" height="82"/></g><g transform="translate(-54,-14) scale(1,1)"><path fill="none" stroke="#000000" d="M 352 206 L 632 206 L 632 288 L 352 288 L 352 206 Z Z" stroke-miterlimit="10"/></g><g transform="translate(-54,-14) scale(1,1)"><g><path fill="none" stroke="none"/><text fill="#000000" stroke="none" font-family="Arial" font-size="13px" font-style="normal" font-weight="bold" text-decoration="none" x="486.944091796875" y="226.5">itf</text></g></g><g transform="translate(-54,-14) scale(1,1)"><rect fill="#C0C0C0" stroke="none" x="359" y="311" width="128" height="15" opacity="0.2"/></g><g transform="translate(-54,-14) scale(1,1)"><rect fill="#C0C0C0" stroke="none" x="359" y="325" width="320" height="82" opacity="0.2"/></g><g transform="translate(-54,-14) scale(1,1)"><rect fill="#ffd6ad" stroke="none" x="352" y="319" width="320" height="81"/></g><g transform="translate(-54,-14) scale(1,1)"><path fill="none" stroke="#000000" d="M 352 319 L 672 319 L 672 400 L 352 400 L 352 319 Z Z" stroke-miterlimit="10"/></g><g transform="translate(-54,-14) scale(1,1)"><rect fill="#ffd6ad" stroke="none" x="352" y="304" width="128" height="15"/></g><g transform="translate(-54,-14) scale(1,1)"><path fill="none" stroke="#000000" d="M 352 304 L 480 304 L 480 319 L 352 319 L 352 304 Z Z" stroke-miterlimit="10"/></g><g transform="translate(-54,-14) scale(1,1)"><rect fill="#ffd6ad" stroke="none" x="352" y="318" width="320" height="82"/></g><g transform="translate(-54,-14) scale(1,1)"><path fill="none" stroke="#000000" d="M 352 318 L 672 318 L 672 400 L 352 400 L 352 318 Z Z" stroke-miterlimit="10"/></g><g transform="translate(-54,-14) scale(1,1)"><g><path fill="none" stroke="none"/><text fill="#000000" stroke="none" font-family="Arial" font-size="13px" font-style="normal" font-weight="bold" text-decoration="none" x="484.536865234375" y="338.5">sequelize</text></g></g><g transform="translate(-54,-14) scale(1,1)"><rect fill="#C0C0C0" stroke="none" x="375" y="239" width="99.33984375" height="48" opacity="0.2"/></g><g transform="translate(-54,-14) scale(1,1)"><rect fill="#ffffff" stroke="none" x="368" y="232" width="99.33984375" height="48"/></g><g transform="translate(-54,-14) scale(1,1)"><path fill="none" stroke="#000000" d="M 368 232 L 467.33984375 232 L 467.33984375 280 L 368 280 L 368 232 Z Z" stroke-miterlimit="10"/></g><g transform="translate(-54,-14) scale(1,1)"><g><path fill="none" stroke="none"/><text fill="#000000" stroke="none" font-family="Arial" font-size="13px" font-style="normal" font-weight="normal" text-decoration="none" x="385.509521484375" y="249.5">«interface»</text></g></g><g transform="translate(-54,-14) scale(1,1)"><g><path fill="none" stroke="none"/><text fill="#000000" stroke="none" font-family="Arial" font-size="13px" font-style="normal" font-weight="bold" text-decoration="none" x="374.680419921875" y="264.5">XxDataService</text></g></g><g transform="translate(-54,-14) scale(1,1)"><rect fill="#C0C0C0" stroke="none" x="511" y="239" width="99.33984375" height="48" opacity="0.2"/></g><g transform="translate(-54,-14) scale(1,1)"><rect fill="#ffffff" stroke="none" x="504" y="232" width="99.33984375" height="48"/></g><g transform="translate(-54,-14) scale(1,1)"><path fill="none" stroke="#000000" d="M 504 232 L 603.33984375 232 L 603.33984375 280 L 504 280 L 504 232 Z Z" stroke-miterlimit="10"/></g><g transform="translate(-54,-14) scale(1,1)"><g><path fill="none" stroke="none"/><text fill="#000000" stroke="none" font-family="Arial" font-size="13px" font-style="normal" font-weight="normal" text-decoration="none" x="521.509521484375" y="249.5">«interface»</text></g></g><g transform="translate(-54,-14) scale(1,1)"><g><path fill="none" stroke="none"/><text fill="#000000" stroke="none" font-family="Arial" font-size="13px" font-style="normal" font-weight="bold" text-decoration="none" x="510.680419921875" y="264.5">YyDataService</text></g></g><g transform="translate(-54,-14) scale(1,1)"><rect fill="#C0C0C0" stroke="none" x="375" y="351" width="115.95166015625" height="44" opacity="0.2"/></g><g transform="translate(-54,-14) scale(1,1)"><rect fill="#ffffff" stroke="none" x="368" y="344" width="115.95166015625" height="44"/></g><g transform="translate(-54,-14) scale(1,1)"><path fill="none" stroke="#000000" d="M 368 344 L 483.95166015625 344 L 483.95166015625 388 L 368 388 L 368 344 Z Z" stroke-miterlimit="10"/></g><g transform="translate(-54,-14) scale(1,1)"><path fill="none" stroke="#000000" d="M 368 369 L 483.95166015625 369" stroke-miterlimit="10"/></g><g transform="translate(-54,-14) scale(1,1)"><path fill="none" stroke="#000000" d="M 368 379 L 483.95166015625 379" stroke-miterlimit="10"/></g><g transform="translate(-54,-14) scale(1,1)"><g><path fill="none" stroke="none"/><text fill="#000000" stroke="none" font-family="Arial" font-size="13px" font-style="normal" font-weight="bold" text-decoration="none" x="375.035888671875" y="363.5">SqXxDataService</text></g></g><g transform="translate(-54,-14) scale(1,1)"><rect fill="#C0C0C0" stroke="none" x="527" y="351" width="115.95166015625" height="44" opacity="0.2"/></g><g transform="translate(-54,-14) scale(1,1)"><rect fill="#ffffff" stroke="none" x="520" y="344" width="115.95166015625" height="44"/></g><g transform="translate(-54,-14) scale(1,1)"><path fill="none" stroke="#000000" d="M 520 344 L 635.95166015625 344 L 635.95166015625 388 L 520 388 L 520 344 Z Z" stroke-miterlimit="10"/></g><g transform="translate(-54,-14) scale(1,1)"><path fill="none" stroke="#000000" d="M 520 369 L 635.95166015625 369" stroke-miterlimit="10"/></g><g transform="translate(-54,-14) scale(1,1)"><path fill="none" stroke="#000000" d="M 520 379 L 635.95166015625 379" stroke-miterlimit="10"/></g><g transform="translate(-54,-14) scale(1,1)"><g><path fill="none" stroke="none"/><text fill="#000000" stroke="none" font-family="Arial" font-size="13px" font-style="normal" font-weight="bold" text-decoration="none" x="527.035888671875" y="363.5">SqYyDataService</text></g></g><g transform="translate(-54,-14) scale(1,1)"><path fill="none" stroke="#000000" d="M 423 343 L 419 281" stroke-miterlimit="10" stroke-dasharray="3"/></g><g transform="translate(-54,-14) scale(1,1)"><path fill="#FFFFFF" stroke="none" d="M 428.7101609303339 300.7411442096708 L 419 281 L 411.90702370121204 301.8252175792915"/></g><g transform="translate(-54,-14) scale(1,1)"><path fill="none" stroke="#000000" d="M 428.7101609303339 300.7411442096708 L 419 281 L 411.90702370121204 301.8252175792915 L 428.7101609303339 300.7411442096708" stroke-miterlimit="10"/></g><g transform="translate(-54,-14) scale(1,1)"><path fill="none" stroke="#000000" d="M 572 343 L 558 281" stroke-miterlimit="10" stroke-dasharray="3"/></g><g transform="translate(-54,-14) scale(1,1)"><path fill="#FFFFFF" stroke="none" d="M 570.6891516767945 298.97179539509904 L 558 281 L 554.2646068041944 302.68056359213773"/></g><g transform="translate(-54,-14) scale(1,1)"><path fill="none" stroke="#000000" d="M 570.6891516767945 298.97179539509904 L 558 281 L 554.2646068041944 302.68056359213773 L 570.6891516767945 298.97179539509904" stroke-miterlimit="10"/></g><g transform="translate(-54,-14) scale(1,1)"><path fill="#ffffff" stroke="none" d="M 96 504 L 245 504 L 255 514 L 255 557 L 96 557 L 96 504"/></g><g transform="translate(-54,-14) scale(1,1)"><path fill="none" stroke="#000000" d="M 96 504 L 245 504 L 255 514 L 255 557 L 96 557 L 96 504 L 96 504" stroke-miterlimit="10"/></g><g transform="translate(-54,-14) scale(1,1)"><path fill="none" stroke="#000000" d="M 245 504 L 245 514 L 255 514 L 245 504" stroke-miterlimit="10"/></g><g transform="translate(-54,-14) scale(1,1)"><g><path fill="none" stroke="none"/><text fill="#000000" stroke="none" font-family="Arial" font-size="13px" font-style="normal" font-weight="normal" text-decoration="none" x="101" y="522">apiRoutes</text></g></g><g transform="translate(-54,-14) scale(1,1)"><g><path fill="none" stroke="none"/><text fill="#000000" stroke="none" font-family="Arial" font-size="13px" font-style="normal" font-weight="normal" text-decoration="none" x="101" y="537">(express REST WS) </text></g></g><g transform="translate(-54,-14) scale(1,1)"><g><path fill="none" stroke="none"/><text fill="#000000" stroke="none" font-family="Arial" font-size="13px" font-style="normal" font-weight="normal" text-decoration="none" x="101" y="552">with apiDoc comments</text></g></g><g transform="translate(-54,-14) scale(1,1)"><rect fill="#C0C0C0" stroke="none" x="535" y="527" width="130.41162109375" height="44" opacity="0.2"/></g><g transform="translate(-54,-14) scale(1,1)"><rect fill="#ffffff" stroke="none" x="528" y="520" width="130.41162109375" height="44"/></g><g transform="translate(-54,-14) scale(1,1)"><path fill="none" stroke="#000000" d="M 528 520 L 658.41162109375 520 L 658.41162109375 564 L 528 564 L 528 520 Z Z" stroke-miterlimit="10"/></g><g transform="translate(-54,-14) scale(1,1)"><path fill="none" stroke="#000000" d="M 528 545 L 658.41162109375 545" stroke-miterlimit="10"/></g><g transform="translate(-54,-14) scale(1,1)"><path fill="none" stroke="#000000" d="M 528 555 L 658.41162109375 555" stroke-miterlimit="10"/></g><g transform="translate(-54,-14) scale(1,1)"><g><path fill="none" stroke="none"/><text fill="#000000" stroke="none" font-family="Arial" font-size="13px" font-style="normal" font-weight="bold" text-decoration="none" x="535.40087890625" y="539.5">XxDataServiceSpec</text></g></g><g transform="translate(-54,-14) scale(1,1)"><rect fill="#C0C0C0" stroke="none" x="359" y="527" width="76.91357421875" height="44" opacity="0.2"/></g><g transform="translate(-54,-14) scale(1,1)"><rect fill="#ffffff" stroke="none" x="352" y="520" width="76.91357421875" height="44"/></g><g transform="translate(-54,-14) scale(1,1)"><path fill="none" stroke="#000000" d="M 352 520 L 428.91357421875 520 L 428.91357421875 564 L 352 564 L 352 520 Z Z" stroke-miterlimit="10"/></g><g transform="translate(-54,-14) scale(1,1)"><path fill="none" stroke="#000000" d="M 352 545 L 428.91357421875 545" stroke-miterlimit="10"/></g><g transform="translate(-54,-14) scale(1,1)"><path fill="none" stroke="#000000" d="M 352 555 L 428.91357421875 555" stroke-miterlimit="10"/></g><g transform="translate(-54,-14) scale(1,1)"><g><path fill="none" stroke="none"/><text fill="#000000" stroke="none" font-family="Arial" font-size="13px" font-style="normal" font-weight="bold" text-decoration="none" x="358.661376953125" y="539.5">XxApiSpec</text></g></g><g transform="translate(-54,-14) scale(1,1)"><path fill="#ff5656" stroke="none" d="M 304 432 L 429 432 L 439 442 L 439 468 L 304 468 L 304 432"/></g><g transform="translate(-54,-14) scale(1,1)"><path fill="none" stroke="#000000" d="M 304 432 L 429 432 L 439 442 L 439 468 L 304 468 L 304 432 L 304 432" stroke-miterlimit="10"/></g><g transform="translate(-54,-14) scale(1,1)"><path fill="none" stroke="#000000" d="M 429 432 L 429 442 L 439 442 L 429 432" stroke-miterlimit="10"/></g><g transform="translate(-54,-14) scale(1,1)"><g><path fill="none" stroke="none"/><text fill="#000000" stroke="none" font-family="Arial" font-size="13px" font-style="normal" font-weight="normal" text-decoration="none" x="309" y="450">server (express app)</text></g></g><g transform="translate(-54,-14) scale(1,1)"><path fill="none" stroke="#000000" d="M 335 521 L 281 518" stroke-miterlimit="10" stroke-dasharray="3"/></g><g transform="translate(-54,-14) scale(1,1)"><path fill="none" stroke="#000000" d="M 291.3805299603827 514.3606871882736 L 281 518 L 290.9135258953276 522.766760359266" stroke-miterlimit="10"/></g><g transform="translate(-54,-14) scale(1,1)"><path fill="none" stroke="#000000" d="M 513 487 L 514 417" stroke-miterlimit="10" stroke-dasharray="3"/></g><g transform="translate(-54,-14) scale(1,1)"><path fill="none" stroke="#000000" d="M 518.063922021856 427.2217678412432 L 514 417 L 509.6457454636101 427.1015081761254" stroke-miterlimit="10"/></g><g transform="translate(-54,-14) scale(1,1)"><path fill="none" stroke="#000000" d="M 327 288 L 297 288" stroke-miterlimit="10" stroke-dasharray="3"/></g><g transform="translate(-54,-14) scale(1,1)"><path fill="none" stroke="#000000" d="M 307.16267485762415 283.790482243984 L 297 288 L 307.16267485762415 292.209517756016" stroke-miterlimit="10"/></g><g transform="translate(-54,-14) scale(1,1)"><path fill="none" stroke="#000000" d="M 177 447 L 178 417" stroke-miterlimit="10" stroke-dasharray="3"/></g><g transform="translate(-54,-14) scale(1,1)"><path fill="none" stroke="#000000" d="M 181.86861329449724 427.2972729971405 L 178 417 L 173.45425113032024 427.01679425833464" stroke-miterlimit="10"/></g><g transform="translate(-54,-14) scale(1,1)"><rect fill="#C0C0C0" stroke="none" x="191" y="231" width="73.32080078125" height="37" opacity="0.2"/></g><g transform="translate(-54,-14) scale(1,1)"><rect fill="#ffffff" stroke="none" x="184" y="224" width="73.32080078125" height="37"/></g><g transform="translate(-54,-14) scale(1,1)"><path fill="none" stroke="#000000" d="M 184 224 L 257.32080078125 224 L 257.32080078125 261 L 184 261 L 184 224 Z Z" stroke-miterlimit="10"/></g><g transform="translate(-54,-14) scale(1,1)"><g><path fill="none" stroke="none"/><text fill="#000000" stroke="none" font-family="Arial" font-size="13px" font-style="normal" font-weight="normal" text-decoration="none" x="188.5" y="241.5">«interface»</text></g></g><g transform="translate(-54,-14) scale(1,1)"><g><path fill="none" stroke="none"/><text fill="#000000" stroke="none" font-family="Arial" font-size="13px" font-style="normal" font-weight="bold" text-decoration="none" x="214.160400390625" y="256.5">yy</text></g></g><g transform="translate(-54,-14) scale(1,1)"><rect fill="#C0C0C0" stroke="none" x="87" y="231" width="73.32080078125" height="37" opacity="0.2"/></g><g transform="translate(-54,-14) scale(1,1)"><rect fill="#ffffff" stroke="none" x="80" y="224" width="73.32080078125" height="37"/></g><g transform="translate(-54,-14) scale(1,1)"><path fill="none" stroke="#000000" d="M 80 224 L 153.32080078125 224 L 153.32080078125 261 L 80 261 L 80 224 Z Z" stroke-miterlimit="10"/></g><g transform="translate(-54,-14) scale(1,1)"><g><path fill="none" stroke="none"/><text fill="#000000" stroke="none" font-family="Arial" font-size="13px" font-style="normal" font-weight="normal" text-decoration="none" x="84.5" y="241.5">«interface»</text></g></g><g transform="translate(-54,-14) scale(1,1)"><g><path fill="none" stroke="none"/><text fill="#000000" stroke="none" font-family="Arial" font-size="13px" font-style="normal" font-weight="bold" text-decoration="none" x="110.160400390625" y="256.5">xx</text></g></g></g></svg>